<?xml version="1.0" encoding="UTF-8" standalone="no"?>
<!DOCTYPE svg PUBLIC "-//W3C//DTD SVG 1.1//EN" "http://www.w3.org/Graphics/SVG/1.1/DTD/svg11.dtd">
<svg width="100%" height="100%" viewBox="0 0 20 20" version="1.1" xmlns="http://www.w3.org/2000/svg" xmlns:xlink="http://www.w3.org/1999/xlink" xml:space="preserve" xmlns:serif="http://www.serif.com/" style="fill-rule:evenodd;clip-rule:evenodd;stroke-linejoin:round;stroke-miterlimit:1.41421;">
    <g id="Forma-1" serif:id="Forma 1" transform="matrix(1,0,0,1,-696.5,-1922.03)">
        <path d="M712.856,1937.82L712.856,1934.42C712.856,1934.09 713.112,1933.83 713.428,1933.83C713.743,1933.83 713.999,1934.09 713.999,1934.42L713.999,1938.17C713.999,1938.21 713.984,1938.25 713.975,1938.29C713.984,1938.33 713.999,1938.37 713.999,1938.41C713.999,1938.74 713.743,1939 713.428,1939L699.572,1939C699.256,1939 699.001,1938.74 699.001,1938.41C699.001,1938.37 699.016,1938.33 699.025,1938.29C699.016,1938.25 699.001,1938.21 699.001,1938.17L699.001,1934.42C699.001,1934.09 699.256,1933.83 699.572,1933.83C699.888,1933.83 700.143,1934.09 700.143,1934.42L700.143,1937.82L712.856,1937.82ZM706.536,1936.24C706.851,1936.24 707.107,1935.98 707.107,1935.65L707.107,1927.07L709.595,1929.63C709.707,1929.74 709.853,1929.8 710,1929.8C710.145,1929.8 710.292,1929.74 710.403,1929.63C710.627,1929.4 710.627,1929.02 710.403,1928.79L706.939,1925.23C706.716,1925 706.355,1925 706.132,1925.23L702.668,1928.79C702.445,1929.02 702.445,1929.4 702.668,1929.63C702.779,1929.74 702.926,1929.8 703.072,1929.8C703.218,1929.8 703.364,1929.74 703.476,1929.63L705.964,1927.07L705.964,1935.65C705.964,1935.98 706.22,1936.24 706.536,1936.24Z" style="fill:white;"/>
    </g>
</svg>
