<svg width="100%" height="100%" viewBox="0 0 8 18" version="1.1" xmlns="http://www.w3.org/2000/svg" xmlns:xlink="http://www.w3.org/1999/xlink" xml:space="preserve" xmlns:serif="http://www.serif.com/" style="fill-rule:evenodd;clip-rule:evenodd;stroke-linejoin:round;stroke-miterlimit:1.41421;">
										<g transform="matrix(1,0,0,1,-319.999,-2528)">
											<path id="Forma-1" serif:id="Forma 1" d="M326.791,2544.06L326.569,2545.09C325.905,2545.38 325.375,2545.61 324.979,2545.76C324.584,2545.92 324.124,2546 323.601,2546C322.797,2546 322.171,2545.78 321.725,2545.33C321.279,2544.89 321.056,2544.32 321.056,2543.63C321.056,2543.37 321.072,2543.09 321.106,2542.82C321.14,2542.54 321.194,2542.22 321.267,2541.87L322.098,2538.54C322.171,2538.22 322.234,2537.91 322.285,2537.63C322.336,2537.34 322.36,2537.08 322.36,2536.85C322.36,2536.42 322.282,2536.12 322.128,2535.95C321.973,2535.79 321.678,2535.7 321.24,2535.7C321.025,2535.7 320.805,2535.74 320.58,2535.82C320.354,2535.89 320.161,2535.97 319.999,2536.03L320.221,2535C320.765,2534.75 321.284,2534.54 321.782,2534.36C322.279,2534.18 322.749,2534.09 323.193,2534.09C323.992,2534.09 324.608,2534.31 325.041,2534.75C325.473,2535.19 325.69,2535.76 325.69,2536.46C325.69,2536.6 325.676,2536.86 325.645,2537.22C325.615,2537.59 325.56,2537.92 325.479,2538.23L324.652,2541.55C324.584,2541.82 324.523,2542.12 324.47,2542.47C324.416,2542.81 324.39,2543.07 324.39,2543.24C324.39,2543.69 324.476,2543.99 324.65,2544.15C324.825,2544.31 325.126,2544.39 325.554,2544.39C325.755,2544.39 325.984,2544.35 326.238,2544.27C326.492,2544.19 326.676,2544.12 326.791,2544.06ZM327.001,2530.1C327.001,2530.68 326.808,2531.18 326.422,2531.58C326.037,2531.99 325.573,2532.2 325.03,2532.2C324.485,2532.2 324.02,2531.99 323.631,2531.58C323.242,2531.18 323.047,2530.68 323.047,2530.1C323.047,2529.52 323.242,2529.03 323.631,2528.62C324.019,2528.2 324.485,2528 325.03,2528C325.573,2528 326.037,2528.21 326.422,2528.62C326.809,2529.03 327.001,2529.52 327.001,2530.1Z" style="fill:#fff;fill-rule:nonzero;"></path>
										</g>
									</svg>