<?xml version="1.0" encoding="UTF-8" standalone="no"?>
<!DOCTYPE svg PUBLIC "-//W3C//DTD SVG 1.1//EN" "http://www.w3.org/Graphics/SVG/1.1/DTD/svg11.dtd">
<svg width="100%" height="100%" viewBox="0 0 12 12" version="1.1" xmlns="http://www.w3.org/2000/svg" xmlns:xlink="http://www.w3.org/1999/xlink" xml:space="preserve" xmlns:serif="http://www.serif.com/" style="fill-rule:evenodd;clip-rule:evenodd;stroke-linejoin:round;stroke-miterlimit:1.41421;">
    <g transform="matrix(1,0,0,1,-1483.99,-2523.99)">
        <path id="Forma-1-copy-3" serif:id="Forma 1 copy 3" d="M1484.14,2524.9C1483.94,2524.7 1483.94,2524.36 1484.14,2524.14C1484.36,2523.93 1484.69,2523.93 1484.91,2524.14L1489.5,2528.73L1494.1,2524.14C1494.3,2523.93 1494.65,2523.93 1494.85,2524.14C1495.07,2524.36 1495.07,2524.7 1494.85,2524.9L1490.26,2529.48L1494.85,2534.07C1495.07,2534.28 1495.07,2534.62 1494.85,2534.83C1494.64,2535.04 1494.3,2535.04 1494.1,2534.83L1489.5,2530.25L1484.91,2534.83C1484.69,2535.04 1484.36,2535.04 1484.14,2534.83C1483.94,2534.62 1483.94,2534.28 1484.14,2534.07L1488.73,2529.48L1484.14,2524.9Z" style="fill-opacity:0.501961;fill-rule:nonzero;"/>
    </g>
</svg>
