<?xml version="1.0" encoding="UTF-8" standalone="no"?>
<!DOCTYPE svg PUBLIC "-//W3C//DTD SVG 1.1//EN" "http://www.w3.org/Graphics/SVG/1.1/DTD/svg11.dtd">
<svg width="100%" height="100%" viewBox="0 0 24 24" version="1.1" xmlns="http://www.w3.org/2000/svg" xmlns:xlink="http://www.w3.org/1999/xlink" xml:space="preserve" xmlns:serif="http://www.serif.com/" style="fill-rule:evenodd;clip-rule:evenodd;stroke-linejoin:round;stroke-miterlimit:1.41421;">
    <g transform="matrix(1,0,0,1,-1491,-296)">
        <path id="Forma-1" serif:id="Forma 1" d="M1504.59,299.999C1504.86,299.999 1505.12,300.089 1505.38,300.269C1505.63,300.45 1505.81,300.669 1505.91,300.926L1506.61,302.666L1509.68,302.666C1509.78,302.666 1509.85,302.697 1509.91,302.759C1509.97,302.822 1510,302.902 1510,302.999L1510,303.666C1510,303.763 1509.97,303.843 1509.91,303.905C1509.85,303.968 1509.78,303.999 1509.68,303.999L1508.73,303.999L1508.73,313.876C1508.73,314.452 1508.57,314.95 1508.26,315.37C1507.95,315.791 1507.58,316.001 1507.14,316.001L1498.86,316.001C1498.42,316.001 1498.05,315.798 1497.74,315.391C1497.43,314.985 1497.27,314.494 1497.27,313.917L1497.27,303.999L1496.32,303.999C1496.22,303.999 1496.15,303.968 1496.09,303.905C1496.03,303.843 1496,303.763 1496,303.666L1496,302.999C1496,302.902 1496.03,302.822 1496.09,302.759C1496.15,302.697 1496.22,302.666 1496.32,302.666L1499.39,302.666L1500.09,300.926C1500.18,300.669 1500.36,300.45 1500.62,300.269C1500.88,300.089 1501.14,299.999 1501.41,299.999L1504.59,299.999ZM1507.14,314.667C1507.16,314.666 1507.19,314.637 1507.24,314.579C1507.29,314.519 1507.34,314.426 1507.39,314.297C1507.43,314.169 1507.45,314.028 1507.45,313.875L1507.45,303.999L1498.54,303.999L1498.54,313.875C1498.54,314.028 1498.57,314.169 1498.61,314.297C1498.66,314.426 1498.71,314.519 1498.76,314.579C1498.81,314.638 1498.84,314.667 1498.86,314.667L1507.14,314.667ZM1503.32,305.999C1503.41,306 1503.49,306.031 1503.55,306.093C1503.61,306.156 1503.64,306.235 1503.64,306.333L1503.64,312.333C1503.64,312.431 1503.61,312.51 1503.55,312.573C1503.49,312.636 1503.41,312.667 1503.32,312.667L1502.68,312.667C1502.59,312.667 1502.51,312.636 1502.45,312.573C1502.39,312.51 1502.36,312.431 1502.36,312.333L1502.36,306.333C1502.36,306.235 1502.39,306.156 1502.45,306.093C1502.51,306.031 1502.59,306 1502.68,305.999L1503.32,305.999ZM1505.86,305.999C1505.96,306 1506.03,306.031 1506.09,306.093C1506.15,306.156 1506.18,306.235 1506.18,306.333L1506.18,312.333C1506.18,312.431 1506.15,312.51 1506.09,312.573C1506.03,312.636 1505.96,312.667 1505.86,312.667L1505.23,312.667C1505.13,312.667 1505.06,312.636 1505,312.573C1504.94,312.51 1504.91,312.431 1504.91,312.333L1504.91,306.333C1504.91,306.235 1504.94,306.156 1505,306.093C1505.06,306.031 1505.13,306 1505.23,305.999L1505.86,305.999ZM1500.77,305.999C1500.87,306 1500.94,306.031 1501,306.093C1501.06,306.156 1501.09,306.235 1501.09,306.333L1501.09,312.333C1501.09,312.431 1501.06,312.51 1501,312.573C1500.94,312.636 1500.87,312.667 1500.77,312.667L1500.14,312.667C1500.04,312.667 1499.97,312.636 1499.91,312.573C1499.85,312.51 1499.82,312.431 1499.82,312.333L1499.82,306.333C1499.82,306.235 1499.85,306.156 1499.91,306.093C1499.97,306.031 1500.04,306 1500.14,305.999L1500.77,305.999ZM1505.23,302.665L1504.75,301.446C1504.7,301.384 1504.65,301.346 1504.58,301.332L1501.43,301.332C1501.36,301.346 1501.31,301.384 1501.26,301.446L1500.77,302.665L1505.23,302.665Z" style="fill:rgb(117,117,117);"/>
    </g>
</svg>
