<?xml version="1.0" encoding="UTF-8" standalone="no"?>
<!DOCTYPE svg PUBLIC "-//W3C//DTD SVG 1.1//EN" "http://www.w3.org/Graphics/SVG/1.1/DTD/svg11.dtd">
<svg width="100%" height="100%" viewBox="0 0 24 24" version="1.1" xmlns="http://www.w3.org/2000/svg" xmlns:xlink="http://www.w3.org/1999/xlink" xml:space="preserve" xmlns:serif="http://www.serif.com/" style="fill-rule:evenodd;clip-rule:evenodd;stroke-linejoin:round;stroke-miterlimit:1.41421;">
    <g transform="matrix(1,0,0,1,-1463.51,-296.003)">
        <path id="Forma-1" serif:id="Forma 1" d="M1474.72,300.736C1475.06,300.742 1475.33,301.016 1475.33,301.351C1475.33,301.689 1475.06,301.965 1474.72,301.965L1469.22,301.965L1469.22,314.77L1479.4,314.77L1479.4,309.648C1479.4,309.31 1479.68,309.034 1480.01,309.034C1480.35,309.034 1480.62,309.31 1480.62,309.648L1480.62,315.385C1480.62,315.723 1480.35,316 1480.01,316L1468.61,316C1468.28,316 1468,315.723 1468,315.385L1468,301.351C1468,301.016 1468.27,300.742 1468.61,300.736L1474.72,300.736ZM1478.94,300.183L1472.83,306.339C1472.71,306.452 1472.65,306.606 1472.64,306.77L1472.6,309.915C1472.6,310.079 1472.66,310.253 1472.79,310.365C1472.9,310.478 1473.06,310.57 1473.21,310.57L1473.22,310.57L1476.25,310.509C1476.41,310.509 1476.56,310.417 1476.67,310.304L1482.84,304.096C1483.08,303.86 1483.08,303.471 1482.84,303.226L1479.82,300.183C1479.57,299.947 1479.18,299.947 1478.94,300.183ZM1475.97,309.259L1473.83,309.29L1473.86,307.036L1476.98,303.902L1479.13,306.094L1475.97,309.259ZM1479.99,305.213L1477.85,303.021L1479.37,301.484L1481.53,303.656L1479.99,305.213Z" style="fill:rgb(117,117,117);"/>
    </g>
</svg>
